<?xml version="1.0" encoding="utf-8"?>
<!-- Generator: Adobe Illustrator 23.0.0, SVG Export Plug-In . SVG Version: 6.00 Build 0)  -->
<svg version="1.1" id="Layer_1" xmlns="http://www.w3.org/2000/svg" xmlns:xlink="http://www.w3.org/1999/xlink" x="0px" y="0px"
	 viewBox="0 0 612 792" style="enable-background:new 0 0 612 792;" xml:space="preserve">
<style type="text/css">
	.st0{display:none;}
	.st1{display:inline;fill:#EEA1B7;stroke:#FFFFFF;stroke-miterlimit:10;}
	.st2{display:inline;fill:none;stroke:#FFFFFF;stroke-miterlimit:10;}
	.st3{display:inline;fill:#FFFFFF;}
	.st4{font-family:'BrandonGrotesque-Medium';}
	.st5{font-size:8px;}
	.st6{display:inline;fill:#FCFCFC;}
	.st7{display:inline;fill:#BA6782;}
	.st8{font-size:12px;}
	.st9{font-size:6px;}
	.st10{font-size:12.0012px;}
	.st11{display:inline;fill:none;stroke:#FFFFFF;stroke-width:3;stroke-linecap:round;stroke-miterlimit:10;}
	.st12{display:inline;fill:#BA6782;stroke:#FFFFFF;stroke-miterlimit:10;}
	.st13{display:inline;fill:#EEA1B7;}
	.st14{display:inline;fill:#98536B;stroke:#FFFFFF;stroke-miterlimit:10;}
	.st15{display:inline;fill:#A3C9DC;stroke:#FFFFFF;stroke-miterlimit:10;}
	.st16{display:inline;fill:#6398A8;}
	.st17{display:inline;enable-background:new    ;}
	.st18{fill:#6398A8;}
	.st19{fill:#6398A8;stroke:#FFFFFF;stroke-miterlimit:10;}
	.st20{fill:#FFFFFF;}
	.st21{fill:#A3C9DC;}
	.st22{display:inline;fill:#3B8E81;stroke:#FFFFFF;stroke-miterlimit:10;}
	.st23{display:inline;fill:#7DC6BD;stroke:#FFFFFF;stroke-miterlimit:10;}
</style>
<g class="st0">
	
		<image style="display:inline;overflow:visible;enable-background:new    ;" width="612" height="792" xlink:href="691268CD92360598.jpeg" >
	</image>
</g>
<g id="pink" class="st0">
	<polygon class="st1" points="19.3,320.7 435.6,320.7 592.2,397.5 592.2,85.8 212.4,85.8 212.4,17.8 19.3,17.8 	"/>
	<line class="st2" x1="212.4" y1="85.8" x2="212.4" y2="320.7"/>
	<polygon class="st1" points="435.6,320.7 518.1,229.9 409.4,172.2 326.1,262.3 	"/>
	<line class="st2" x1="367.6" y1="217.4" x2="476.8" y2="275.3"/>
	<polyline class="st1" points="212.4,172.2 409.4,172.2 409.4,85.8 	"/>
	<line class="st2" x1="518.1" y1="229.9" x2="592.2" y2="229.9"/>
</g>
<g id="Layer_9" class="st0">
	<text transform="matrix(1 0 0 1 149.254 315.082)" class="st3 st4 st5">SELF PORTRAIT</text>
	<text transform="matrix(1 0 0 1 220.3148 98.5271)" class="st3 st4 st5">FULL NAME</text>
	<text transform="matrix(1 0 0 1 220.3147 184.7118)" class="st3 st4 st5">HOBBIES</text>
	<text transform="matrix(1 0 0 1 417.0935 98.5269)" class="st3 st4 st5">NICKNAMES</text>
	<text transform="matrix(0.879 0.4768 -0.4768 0.879 366.4059 228.1508)" class="st6 st4 st5">BIRTHDAY</text>
	<text transform="matrix(0.8797 0.4755 -0.4755 0.8797 408.648 182.6862)" class="st3 st4 st5">PLACE I WAS BORN</text>
	<text transform="matrix(1 0 0 1 544.5258 241.8749)" class="st3 st4 st5">MY FAMILY</text>
	<text transform="matrix(1 0 0 1 220.315 121.4057)" class="st7 st4 st8">NADIA</text>
	<text transform="matrix(1 0 0 1 220.315 135.8057)" class="st7 st4 st8">CHRISTINE</text>
	<text transform="matrix(1 0 0 1 220.315 150.2057)" class="st7 st4 st8">MAKMUR</text>
	<text transform="matrix(1 0 0 1 417.093 121.4056)" class="st7 st4 st8">(</text>
	<text transform="matrix(1 0 0 1 421.193 121.4056)" class="st3 st4 st8">NADI</text>
	<text transform="matrix(1 0 0 1 450.8929 121.4056)" class="st7 st4 st8">)A</text>
	<text transform="matrix(1 0 0 1 417.093 135.8056)" class="st7 st4 st8">CHRIS(</text>
	<text transform="matrix(1 0 0 1 456.793 135.8056)" class="st3 st4 st8">TIN</text>
	<text transform="matrix(1 0 0 1 475.493 135.8056)" class="st7 st4 st8">)E</text>
	<text transform="matrix(1 0 0 1 417.093 150.2056)" class="st7 st4 st8">MAKMUR</text>
	<text transform="matrix(1 0 0 1 535.3231 261.4476)" class="st7 st4 st8"> </text>
	<text transform="matrix(1 0 0 1 537.9231 261.4476)" class="st3 st4 st9">DAD  </text>
	<text transform="matrix(1 0 0 1 553.5231 261.4476)" class="st7 st4 st8">AGUS</text>
	<text transform="matrix(1 0 0 1 537.5231 275.8476)" class="st7 st4 st9"> </text>
	<text transform="matrix(1 0 0 1 538.8231 275.8476)" class="st3 st4 st9">MOM  </text>
	<text transform="matrix(1 0 0 1 556.8231 275.8476)" class="st7 st4 st8">SUZY</text>
	<text transform="matrix(1 0 0 1 522.5231 290.2476)" class="st7 st4 st9"> </text>
	<text transform="matrix(1 0 0 1 523.8231 290.2476)" class="st3 st4 st9">ELDEST  </text>
	<text transform="matrix(1 0 0 1 547.1231 290.2476)" class="st7 st4 st8">ROBIN</text>
	<text transform="matrix(1 0 0 1 506.4231 304.6476)" class="st7 st4 st9"> </text>
	<text transform="matrix(1 0 0 1 507.7231 304.6476)" class="st3 st4 st9">MIDDLE  </text>
	<text transform="matrix(1 0 0 1 532.8231 304.6476)" class="st7 st4 st8">NATASYA</text>
	<text transform="matrix(1 0 0 1 512.2231 319.0476)" class="st7 st4 st9"> </text>
	<text transform="matrix(1 0 0 1 513.5231 319.0476)" class="st3 st4 st9">YOUNGEST  </text>
	<text transform="matrix(1 0 0 1 547.5231 319.0476)" class="st7 st4 st8">NADIA</text>
	<text transform="matrix(0.8662 0.4998 -0.4998 0.8662 399.7582 195.1895)" class="st7 st4 st10">JAKARTA,</text>
	<text transform="matrix(0.8662 0.4998 -0.4998 0.8662 392.561 207.6629)" class="st7 st4 st10">INDONESIA</text>
	<text transform="matrix(0.8797 0.4755 -0.4755 0.8797 356.7047 241.8747)" class="st7 st4 st8">JULY 1, 2000</text>
	<text transform="matrix(1 0 0 1 220.3151 206.0224)" class="st7 st4 st8">WATCHING MOVIES</text>
	<text transform="matrix(1 0 0 1 220.3151 220.4224)" class="st7 st4 st8">TAKING PICTURES</text>
	<text transform="matrix(1 0 0 1 220.3151 234.8224)" class="st7 st4 st8">TRAVELLING  </text>
	<path class="st7" d="M115,208.4L115,208.4c-23.9,0-43.2-19.3-43.2-43.2l0,0c0-23.9,19.3-43.2,43.2-43.2l0,0
		c23.9,0,43.2,19.3,43.2,43.2l0,0C158.2,189.1,138.9,208.4,115,208.4z"/>
	<circle class="st3" cx="93.9" cy="159.3" r="5.4"/>
	<circle class="st3" cx="136.2" cy="159.3" r="5.4"/>
	<path class="st11" d="M123.4,167c0,4.6-3.8,8.4-8.4,8.4s-8.4-3.8-8.4-8.4"/>
</g>
<g id="plum" class="st0">
	<rect x="19.3" y="320.7" class="st12" width="225.5" height="224.4"/>
	<line class="st2" x1="19.3" y1="320.7" x2="244.8" y2="545.1"/>
	<line class="st2" x1="103.5" y1="545.1" x2="103.5" y2="404.5"/>
</g>
<g id="Layer_10" class="st0">
	<text transform="matrix(1 0 0 1 89.7501 335.0948)" class="st3 st4 st5">AN ACCOMPLISHMENT I AM PROUD OF</text>
	<text transform="matrix(1 0 0 1 154.4063 356.4056)" class="st13 st4 st8">GETTING MY IB</text>
	<text transform="matrix(1 0 0 1 180.7063 370.8056)" class="st13 st4 st8">DIPLOMA </text>
	<text transform="matrix(0.7113 0.7029 -0.7029 0.7113 55.9425 374.5945)" class="st3 st4 st5">I HAVE NEVER</text>
	<text transform="matrix(0.7083 0.7059 -0.7059 0.7083 113.6065 431.9236)" class="st3 st4 st5">WHERE I SPEND MY FREE TIME</text>
	<text transform="matrix(1 0 0 1 27.0897 508.0436)" class="st13 st4 st8">VISIT</text>
	<text transform="matrix(1 0 0 1 27.0897 522.4436)" class="st13 st4 st8">NEW</text>
	<text transform="matrix(1 0 0 1 27.0897 536.8436)" class="st13 st4 st8">ORLEANS</text>
	<text transform="matrix(1 0 0 1 111.0031 508.0439)" class="st13 st4 st8">GOING </text>
	<text transform="matrix(1 0 0 1 111.0031 522.4439)" class="st13 st4 st8">TO COFFEE</text>
	<text transform="matrix(1 0 0 1 111.0031 536.8439)" class="st13 st4 st8">SHOPS</text>
</g>
<g id="purple" class="st0">
	<polygon class="st14" points="244.8,320.7 435.6,320.7 592.2,397.5 244.8,397.5 	"/>
	<line class="st2" x1="244.8" y1="320.7" x2="401.4" y2="397.5"/>
</g>
<g id="Layer_2" class="st0">
	<text transform="matrix(1 0 0 1 355.8629 335.0947)" class="st3 st4 st5">PLACES I HAVE LIVED</text>
	<text transform="matrix(1 0 0 1 251.3301 390.6871)" class="st3 st4 st5">PERSON I LOOK UP TO</text>
	<text transform="matrix(1 0 0 1 251.8278 373.7349)" class="st13 st4 st8">MY MOM</text>
	<text transform="matrix(1 0 0 1 411.2918 390.6873)" class="st13 st4 st8">JAKARTA, INDONESIA</text>
</g>
<g id="blue" class="st0">
	<polygon class="st15" points="19.3,545.1 19.3,751.3 130.7,751.3 130.7,668.3 244.8,545.1 	"/>
	<line class="st2" x1="19.3" y1="545.1" x2="130.7" y2="668.3"/>
</g>
<g id="Layer_3" class="st0">
	<text transform="matrix(1 0 0 1 77.9301 558.4896)" class="st3 st4 st5">MOST MEMORABLE EVENT </text>
	<text transform="matrix(1 0 0 1 77.9301 579.5052)" class="st16 st4 st8">18TH BIRTHDAY</text>
	<text transform="matrix(6.123234e-17 -1 1 6.123234e-17 33.487 745.6895)" class="st3 st4 st5">QUALITIES OF A GOOD TEACHER</text>
	<text transform="matrix(6.123234e-17 -1 1 6.123234e-17 55.1154 745.6895)" class="st17"><tspan x="0" y="0" class="st18 st4 st8">GOOD FEEDBACK</tspan><tspan x="0" y="14.4" class="st18 st4 st8">PATIENT </tspan><tspan x="0" y="28.8" class="st18 st4 st8">CLEAR INSTRUCTIONS </tspan></text>
</g>
<g id="darkblue">
	<polygon class="st19" points="244.8,397.5 244.8,545.1 418.5,397.5 	"/>
</g>
<g id="Layer_4">
	<text transform="matrix(1 0 0 1 251.3302 410.1855)" class="st20 st4 st5">PETS</text>
	<text transform="matrix(1 0 0 1 251.8278 430.9817)"><tspan x="0" y="0" class="st21 st4 st8">KENZIE</tspan><tspan x="0" y="9" class="st20 st4 st9">YORKIE</tspan></text>
</g>
<g id="darkgreen" class="st0">
	<polygon class="st22" points="130.7,751.3 130.7,668.3 244.8,545.1 270.6,545.1 424.3,751.8 	"/>
</g>
<g id="green" class="st0">
	<ellipse class="st23" cx="418.7" cy="574.7" rx="176.4" ry="177.1"/>
	<line class="st2" x1="418.7" y1="397.5" x2="418.7" y2="751.8"/>
	<line class="st2" x1="242.4" y1="574.7" x2="595.1" y2="574.7"/>
	<path class="st23" d="M292.5,698.4"/>
	<path class="st23" d="M543.1,449.1"/>
	<line class="st2" x1="293.8" y1="449.6" x2="543.7" y2="699.6"/>
	<path class="st23" d="M293,698.9"/>
	<path class="st23" d="M543.1,449.1"/>
	<line class="st2" x1="544.3" y1="449.8" x2="294.2" y2="699.6"/>
</g>
</svg>
